<svg version="1.2" xmlns="http://www.w3.org/2000/svg" viewBox="0 0 500 500" width="500" height="500"><style>.s0{fill:#ffffff}</style><path class="s0" d="m451.8 54.1c10.2 0.3 12.6 0.8 19.8 4.3c5.2 2.4 10.6 6.3 14.5 10.3c3.4 3.6 7.5 9.4 9.2 12.9c1.6 3.5 3.4 9 4 12.2c0.5 3.2 0.8 47.9 0.6 99.4c-0.2 51.4-0.6 99.3-1 106.4c-0.4 7.1-0.9 23-1.2 35.5c-0.4 12.4-0.5 24.2-0.4 26.3c0.1 2 0.2 13.3 0.2 46.4l-4 8.6c-2.7 5.6-6.4 10.8-10.7 15c-3.6 3.5-9.5 7.7-13 9.3c-3.5 1.7-9.9 3.7-14.1 4.6c-6.4 1.4-8.9 1.4-15.3 0c-4.2-0.9-10.5-2.9-14-4.6c-3.6-1.6-9.4-5.8-13-9.3c-4.3-4.1-8.1-9.5-14.8-23.6v-45.8c0-25.3 0.4-52.9 1.8-77.1l-4 2.7c-2.2 1.5-4.8 3.9-5.9 5.2c-1.1 1.4-5.2 5-9.2 8c-4 3-8.1 6.6-9.2 8c-1.1 1.3-5.2 4.9-9.1 7.9c-3.9 3-16.2 14.6-27.4 25.6c-11.1 11.1-23 22.4-26.3 25.1c-3.4 2.7-10.2 9.1-15.1 14.1c-5 5.1-11 11.4-13.5 14c-2.4 2.6-6.9 6.3-10 8.2c-3 2-9.6 4.5-14.6 5.6c-7.9 1.8-10.4 1.9-17.5 0.6c-4.5-0.8-11.4-3-15.2-5c-4.2-2-9.8-6.4-13.8-10.7c-4.6-4.8-7.9-9.8-10.1-15.4c-3.2-8-3.4-9.2-3.9-36.1c-0.3-15.3-0.5-29.1-0.6-30.6c-0.1-2.4-0.8-2-7 3.7c-3.8 3.5-10.5 10-15 14.3c-4.4 4.3-10.3 9.2-13 11c-2.8 1.7-8.1 5.6-11.9 8.6c-3.7 3.1-7.5 7.2-8.4 9.2c-0.8 2-3.1 5.9-5 8.6c-2 2.7-6.1 7-9.3 9.6c-3.1 2.6-8.2 5.9-11.2 7.2c-3 1.3-7.2 3.6-9.2 5.1c-2.4 1.8-4.6 5.4-6.6 10.6c-1.6 4.3-4.5 10-6.5 12.7c-2 2.7-6.1 7.1-9.3 9.7c-3.1 2.6-7.9 5.7-10.6 6.9c-2.7 1.2-8.2 2.9-12.2 3.7c-5.9 1.3-9 1.3-15.9 0c-4.7-0.8-11.6-3.1-15.3-4.9c-3.8-2-9.7-6.6-13.5-10.6c-4.5-4.9-7.8-9.9-10.1-15.5c-2.7-6.6-3.3-10.2-3.3-18c0-6.4 0.7-11.8 2.2-15.6c2-5.4 2.1-13 1.8-226l-2.9-6.1c-2.4-5.1-2.8-8-2.8-17.7c0-9.2 0.6-13.1 2.8-18.4c1.5-3.7 4.8-9.3 7.2-12.5c2.5-3.2 7-7.6 10-9.8c3-2.1 8.7-5.1 12.6-6.7c5.2-2.1 9.4-2.8 16.8-2.8c7.6 0 11.4 0.7 17.4 3.2c4.2 1.7 10.7 5.4 14.4 8.2c3.7 2.8 9.4 6.5 12.8 8.2c3.3 1.7 8.7 5.8 12 9.2c3.3 3.3 7.2 8.8 8.7 12.2c2 4.3 4.7 7.5 9.1 10.7c3.5 2.5 6.3 5 6.2 5.5c0 0.5 4.8 5.9 10.7 12.1c6 6.1 14.9 15.9 20 21.7c5 5.8 11.3 12 13.8 13.9c2.6 1.9 5.4 4.5 6.3 5.8c0.8 1.4 4.3 4.5 7.8 7.1c6.1 4.4 6.3 4.4 6.5 1.8c0.1-1.5 0.3-14.6 0.4-29.1c0.2-24 0.4-26.8 2.9-32.7c1.7-4.2 2.8-9.8 3.1-16.5c0.3-6.5 1.4-12.5 3.2-16.8c1.4-3.7 4.7-9.4 7.1-12.6c2.5-3.2 7-7.6 10-9.7c3.1-2.1 8.8-5.2 12.9-6.8c6.2-2.5 8.9-2.9 18.3-2.5c9.4 0.4 12.3 1.1 19.3 4.4c5 2.4 10.8 6.5 14.7 10.4c3.5 3.6 8.6 8.1 11.3 10.1c2.7 2 7.9 6.6 11.7 10.3c3.8 3.7 9.8 9.5 13.3 12.9c3.6 3.4 8.8 7.8 11.6 9.8c2.9 2 7.6 6 10.6 8.9c2.9 2.8 13.5 13 23.5 22.6c9.9 9.6 21.1 20.2 31.5 29.6l0.1-4.8c0.1-2.7 0.2-22.6 0.4-44.1c0.2-37.6 0.3-39.4 2.9-45.8c1.6-3.7 4.8-9.4 7.3-12.6c2.5-3.2 7-7.6 10-9.7c3-2.2 8.5-5.2 12.2-6.7c5.7-2.4 8.5-2.8 18.4-2.5z" /></svg>