<svg version="1.2" xmlns="http://www.w3.org/2000/svg" viewBox="0 0 500 500" width="500" height="500"><style>.s0{fill:#ffffff}</style><path class="s0" d="m145 0c6.8-0.1 9.9 0.4 14.6 2.3c3.3 1.3 8.1 3.8 10.7 5.7c2.6 1.8 6.5 5.7 8.8 8.8c2.3 3 6.7 8.3 9.9 11.7c3.5 3.8 6.6 8.4 7.8 11.5c1 2.8 3.1 8 4.5 11.4c1.4 3.5 3.7 9.8 5.1 14.1c2.2 6.4 2.5 8.9 1.9 14.1c-0.3 3.4-0.5 7.6-0.4 9.4c0.2 1.7 0.3 5.7 0.2 8.8c-0.1 3.2-0.4 11.1-0.7 17.7c-0.4 6.6-0.9 16.7-1.1 22.4c-0.3 5.8-0.4 11.8-0.3 13.6c0.1 1.7 0.1 5.9 0 9.3c0 3.5 0 8.2 0 10.5c0 2.3 0 6.9 0 10.4c0 3.4 0 8.1 0 10.4c0 2.3 0 7 0 10.4c0 3.5 0 8.2 0 10.4c0 2.3 0 7 0 10.5c0 3.4 0 8.1 0 10.4c0 2.3 0 6.7 0 9.9c-0.1 3.1-0.4 11.1-0.8 17.7c-0.4 6.6-0.6 15.4-0.6 19.5c0 4.2-0.5 9.6-1.1 12c-0.7 2.5-1.2 7-1.1 10.2c0.1 3.1-0.3 8.3-0.9 11.4c-0.6 3.2-1.3 9.8-1.6 14.6c-0.3 4.9-0.7 13.6-1 19.3c-0.3 5.7-0.7 19.8-1 31.3c-0.3 11.4-0.6 24.8-0.8 29.7c-0.2 4.8-0.9 11.2-1.5 14c-0.7 2.9-1.8 9-2.4 13.6c-0.7 4.6-1.6 12.1-2.2 16.6c-0.7 5.5-2.1 10.7-4.2 15.2c-2 4.2-5.3 8.8-8.8 12.2c-3.1 3-8.2 6.6-11.4 8.1c-3.1 1.4-5.9 2.6-6.2 2.6c-0.3 0-3.5 1.4-7.1 3c-3.5 1.7-9.3 3.7-12.7 4.4c-5.1 1-7.8 1-14.1-0.1c-4.3-0.8-9.4-1.3-11.4-1.2c-2.1 0.2-6.5-0.3-9.9-0.9c-3.5-0.7-8.6-2.5-11.5-3.9c-2.9-1.5-6.9-3.9-8.9-5.5c-2-1.6-6-4-8.8-5.5c-2.9-1.4-7.8-5.3-11-8.7c-3.9-4.2-6.6-8.4-8.7-13.4c-1.6-4-3.9-8.7-5.1-10.4c-1.2-1.7-3.3-5.8-4.6-9.1c-1.5-3.7-2.4-8.2-2.4-11.5c0-3-0.7-7.4-1.7-9.6c-1.3-3.2-1.8-8.3-2.1-20.4c-0.2-8.8-1-29.9-1.9-46.9c-1.2-24.3-1.5-59.3-1.5-167.2c0-78.6 0.5-138.6 1-141.4c0.6-2.8 2.1-7.4 3.5-10.5c1.4-3 4.9-7.9 7.8-10.9c3.3-3.4 8-6.7 12.4-8.8c5.9-2.9 8.4-3.5 16.4-3.8c6.9-0.3 10.4 0.1 13.5 1.3c4.1 1.6 4.2 1.6 7.8-1.1c2-1.6 6.2-4 9.4-5.4c4.2-1.9 8.6-2.7 16.7-3.3c6-0.4 14.8-0.8 19.5-0.9zm213.6 4.1c5.4-0.1 10.1 0.5 12.5 1.5c2.2 0.9 6 1.6 8.6 1.6c2.6 0 6.8 0.5 9.4 1.1c2.6 0.6 7.3 2.4 10.4 3.9c3.2 1.6 8.6 3.9 12 5.2c3.4 1.2 8.6 3.9 11.5 5.9c2.8 2 6.8 5.7 8.8 8.2c2 2.4 6.2 6.8 9.2 9.6c3.1 2.8 6.7 7 8.1 9.3c1.3 2.3 3.6 8.2 5 13c1.5 4.9 3.9 12.6 5.4 17.2c2.1 6.4 2.6 9.7 2.2 14.1c-0.3 3.1 0 8.8 0.6 12.5c0.8 4.4 0.8 8.4 0.2 11.4c-0.6 2.9-0.6 6.9 0 10.5c0.6 3.5 0.6 7.5 0 10.4c-0.6 2.9-0.6 6.9 0 10.4c0.6 3.5 0.6 7.5 0 10.4c-0.6 2.9-0.6 6.9 0 10.4c0.6 3.6 0.6 7.6 0 10.5c-0.6 2.9-0.6 6.9 0 10.4c0.6 3.5 0.6 7.5 0 10.4c-0.6 2.9-0.6 6.9 0 10.4c0.6 3.6 0.6 7.6 0 10.4c-0.6 2.9-0.6 6.9 0 10.5c0.6 3.5 0.6 7.5 0 10.4c-0.6 2.9-0.6 6.9 0 10.4c0.6 3.5 0.6 7.5 0 10.4c-0.6 2.9-0.6 6.9 0 10.4c0.6 3.6 0.6 7.6 0 10.5c-0.6 2.9-0.6 6.9 0 10.4c0.6 3.5 0.6 7.5 0 10.4c-0.6 2.9-0.6 6.9 0 10.4c0.6 3.6 0.6 7.6 0 10.4c-0.6 2.9-0.6 6.9 0 10.5c0.6 3.5 0.6 7.5 0 10.4c-0.6 2.9-0.6 6.9 0 10.4c0.6 3.5 0.6 7.5 0 10.4c-0.6 2.9-0.6 6.9 0 10.4c0.6 3.6 0.6 7.6-0.1 10.5c-0.6 2.9-0.6 6.8 0.1 10.4c0.7 4.1 0.6 7.5-0.4 12c-0.7 3.4-1.4 10.2-1.5 15.1c-0.3 7.6-0.8 9.9-3.9 16.4c-1.9 4.2-3.9 7.6-4.3 7.6c-0.4 0-0.8 1-0.8 2.3c0 1.3-1.4 5.4-3.2 9.1c-2 4.1-5.5 8.9-8.9 12.2c-3.1 3.1-8.1 6.6-11.1 8c-3 1.3-6.7 2.7-8.3 3.1c-1.6 0.4-4.9 2-7.3 3.5c-2.4 1.6-7.4 3.7-11.2 4.7c-3.7 1-8.1 1.8-9.6 1.8c-1.6 0-6.3 1-10.5 2.1c-4.1 1.2-9.2 2.1-11.2 2.1c-2 0-6.2-0.7-9.3-1.6c-3.2-0.9-9.6-2.3-14.4-3.1c-4.7-0.8-11.3-2.9-14.6-4.5c-3.5-1.8-8.3-5.6-11.7-9.2c-4.3-4.5-6.5-8.1-8.8-13.9c-1.6-4.3-4.4-10.9-6.1-14.6c-2.6-5.3-3.4-9-4.2-17.7c-0.5-6.1-1-92.6-1.2-384l2.4-5.7c1.4-3.1 4.2-8 6.3-10.7c2.1-2.8 6.6-7 10-9.4c3.4-2.4 7.2-5.7 8.3-7.3c1.2-1.6 4.3-4.4 6.9-6.2c2.5-1.8 7.2-4.3 10.4-5.6c4.3-1.8 7.9-2.4 14.3-2.4z" /></svg>