<svg version="1.2" xmlns="http://www.w3.org/2000/svg" viewBox="0 0 500 500" width="500" height="500"><style>.s0{fill:#ffffff}</style><path class="s0" d="m56.1 0l17.8 0.7c9.9 0.4 20.1 1.3 22.7 2c2.6 0.8 7.6 2.3 11 3.4c3.5 1.2 8.9 2.9 12.1 3.9c3.2 1 7.7 3.2 10 4.8c2.3 1.7 7.6 4.8 11.6 6.9c4.1 2.1 8.3 4.6 9.5 5.7c1.1 1.1 4.7 3.2 7.9 4.6c3.2 1.5 7.4 3.7 9.4 4.8c2.1 1.2 7.8 4 12.7 6.3c4.9 2.2 11.3 4.9 14.2 5.9c2.9 1 7.1 3.2 9.5 4.8c2.3 1.7 6.8 4.3 10 5.8c3.1 1.5 6.9 3.6 8.4 4.7c1.4 1 5.4 3 8.9 4.4c3.5 1.4 7.8 3.5 9.5 4.7c1.7 1.2 5.8 3.3 8.9 4.5c3.2 1.3 8 3.7 10.6 5.3c2.6 1.7 6.8 3.8 9.4 4.8c2.6 1 6.7 3.1 9 4.6c2.3 1.6 7 4 10.4 5.4c3.4 1.4 6.4 2.9 6.6 3.4c0.2 0.4 2.4 1.3 4.8 1.9c2.5 0.6 7.3 2.5 10.8 4.1c3.5 1.6 7.7 3.2 9.5 3.7c1.7 0.4 6 2 9.5 3.6c3.4 1.7 7.9 3.3 10 3.7c2 0.4 7 2.3 11 4.3c4.1 1.9 10.5 4.8 14.2 6.3c3.8 1.5 9 4.3 11.6 6.2c2.6 1.8 6.4 4 8.4 4.8c2 0.8 5.8 2.8 8.4 4.4c2.6 1.6 6.9 3.7 9.5 4.7c2.6 1 6.8 3.2 9.2 4.8c2.5 1.6 4.8 3 5.3 3c0.4 0 3.6 1.4 7.1 3c3.5 1.7 8 3.4 10 3.7c2 0.4 6.5 2.1 10 3.7c3.5 1.7 8 3.3 10 3.7c2 0.4 6.6 2.1 10.2 3.8c4 1.9 8.7 5.3 12 8.7c2.9 3 6.4 8 7.8 11c1.5 3.1 3.1 8.3 3.8 11.6c0.6 3.3 0.9 8.4 0.5 11.3c-0.3 2.9-1.6 9.3-2.8 14.2c-1.3 4.9-3 10.9-3.9 13.2c-1 2.3-3.2 6.3-5.1 8.9c-1.8 2.6-4.1 5.1-5 5.5c-1 0.5-3.8 3.6-6.2 6.9c-2.5 3.3-7.7 9.4-11.6 13.4c-3.9 4.1-7.9 8.2-9 9.3c-1 1.1-5.8 5.8-10.7 10.5c-4.9 4.8-10.6 9.9-12.6 11.5c-2.1 1.5-6.3 5.2-9.5 8.2c-3.2 3-8.4 6.7-11.6 8.2c-3.2 1.5-8.7 4.8-12.4 7.3c-3.6 2.4-7.3 4.5-8.1 4.5c-0.9 0-3.7 1.6-6.3 3.7c-2.6 2-6.9 4.6-9.5 5.7c-2.6 1.2-5.1 2.1-5.5 2.1c-0.5 0-2.5 1.4-4.5 3.1c-2 1.6-5.9 4-8.7 5.2c-2.7 1.3-5.3 2.3-5.8 2.3c-0.4-0.1-4.6 1.8-9.2 4.2c-4.6 2.3-9.1 4.2-10 4.2c-0.9-0.1-2.8 0.9-4.2 2.2c-1.4 1.2-5.1 3.4-8.2 4.7c-3 1.4-6.1 2.5-6.8 2.5c-0.7 0-2.5 1-3.9 2.2c-1.5 1.3-5.3 3.5-8.5 5c-3.1 1.6-8.7 4.9-12.3 7.3c-3.6 2.5-7.2 4.5-7.9 4.6c-0.7 0-3.5 1.8-6.1 4c-2.6 2.2-6.8 5-9.4 6.3c-2.7 1.4-6.7 4-9 5.9c-2.3 1.9-5.4 4-6.8 4.6c-1.5 0.5-6.2 3.6-10.6 6.9c-4.3 3.2-10.7 8.1-14.2 11c-3.4 2.8-8.7 6.2-11.5 7.6c-2.9 1.4-8.3 4.6-11.9 7c-3.6 2.5-7.2 4.5-7.9 4.5c-0.7 0-4.4 2.1-8.1 4.8c-3.8 2.6-8.8 5.3-11.1 6c-2.3 0.7-6.8 2.9-10 5c-3.2 2.1-7.2 4.1-8.9 4.6c-1.8 0.4-4.8 2.1-6.9 3.7c-2 1.6-6.5 4.3-10 6c-3.4 1.6-7.5 4-8.9 5.3c-1.5 1.2-4.8 3.2-7.4 4.4c-2.6 1.1-7.7 2.7-11.3 3.5c-5.5 1.2-7.7 1.2-13.2 0c-3.6-0.8-9-2.5-12.1-3.9c-3-1.4-8.2-5.3-11.5-8.6c-3.4-3.4-7.1-8.5-8.4-11.4c-1.3-2.8-4-9-6-13.6c-2.2-5.1-3.9-11.2-4.4-15.3c-0.4-3.7-1.6-9.1-2.7-11.8c-1.1-2.8-1.9-7.5-1.9-10.5c0-3.1-0.7-7.7-1.6-10.3c-0.9-2.6-1.6-7.1-1.6-10c0-2.9-0.7-7.2-1.7-9.5c-0.9-2.3-1.9-8-2.1-12.6c-0.2-4.6-0.9-11-1.5-14.2c-0.6-3.2-1-7.8-1-10.3c0-2.4-0.5-6.5-1.1-8.9c-0.5-2.5-1.5-13-2.1-23.4c-0.6-10.5-1.6-24.2-2.2-30.6c-0.6-6.3-1.3-15.3-1.5-20c-0.3-4.6-1.1-14.3-1.7-21.5c-0.6-7.3-1.3-17-1.5-21.6c-0.3-4.6-0.7-22.6-0.9-40c-0.2-17.4-1-36.3-1.7-42.1c-0.6-5.8-1.6-14.6-2.1-19.5c-0.5-4.9-1.4-11.3-2-14.2c-0.7-2.9-1.1-8.1-1.1-11.6c0.1-3.4-0.2-12.2-0.7-19.4c-0.4-7.3-0.7-16.7-0.7-21.1c0.1-5.5 0.8-9.6 2.4-13.7c1.3-3.2 3.7-7.7 5.3-10c1.7-2.3 4.3-7.7 6-12c2.3-6.1 4.3-9.2 9.3-14.2c4.7-4.9 8.2-7.3 14.2-9.9z" /></svg>